<svg width="640" height="640" viewBox="0 0 640 640" fill="none" xmlns="http://www.w3.org/2000/svg">
<path d="M320 24C320 10.7452 309.255 0 296 0H24C10.7452 0 0 10.7452 0 24V136C0 149.255 10.7452 160 24 160H259C259.067 160 259.135 160.001 259.203 160.003C259.302 160.002 259.401 160 259.5 160C273.583 160 285 171.193 285 185C285 189.333 283.875 193.407 281.896 196.96C281.493 197.848 281.005 198.719 280.429 199.57L167.029 312.971C162.529 317.472 160 323.576 160 329.941V616C160 629.255 170.745 640 184 640H616C629.255 640 640 629.255 640 616V264C640 250.745 629.255 240 616 240H504C490.745 240 480 250.745 480 264V456C480 469.255 469.255 480 456 480H343.993C330.738 480 319.993 469.254 319.993 455.999L320 184C320.001 172 333 160 344 160H616C629.255 160 640 149.255 640 136V24C640 10.7452 629.255 0 616 0H489.941C483.576 0 477.472 2.52851 472.971 7.0293L361.69 118.309C357.287 121.863 351.649 124 345.5 124C331.417 124 320 112.807 320 99C320 98.6812 320.007 98.3638 320.02 98.0479C320.006 97.8633 320 97.6806 320 97.5V24Z" fill="white"/>
</svg>
